# xmcd CD database file
#
# Track frame offsets:
#	150
#	8853
#	21903
#	33408
#	45538
#	89890
#	100414
#	109501
#	119741
#	134297
#	162224
#	197597
#	210590
#	234410
#	253388
#
# Disc length: 3532 seconds
#
# Revision: 0
# Processed by: cddbd v1.5.2PL0 Copyright (c) Steve Scherf et al.
# Submitted via: CDex 1.70beta2
#
DISCID=d10dca0f
DTITLE=NGUYEN LE(With Michael Gibbs - NDR Bigband) - Celebrating The Dark Side Of The Moon
DYEAR=2014
DGENRE=Jazz
TTITLE0=Speak To Me
TTITLE1=Inspire
TTITLE2=Breathe
TTITLE3=On The Run
TTITLE4=Time
TTITLE5=Magic Spells
TTITLE6=Hear This Whispering
TTITLE7=The Great Gig In The Sky
TTITLE8=Gotta Go Sometime
TTITLE9=Money
TTITLE10=Us And Them
TTITLE11=Purple Or Blue
TTITLE12=Any Colour You Like
TTITLE13=Brain Damage
TTITLE14=Eclipse
EXTD=YEAR: 2014
EXTT0=
EXTT1=
EXTT2=
EXTT3=
EXTT4=
EXTT5=
EXTT6=
EXTT7=
EXTT8=
EXTT9=
EXTT10=
EXTT11=
EXTT12=
EXTT13=
EXTT14=
PLAYORDER=
